PathFileType	4	(X/Y/Z)	..\data\2014051\dynamic\2014051_C4_04.trc
DataRate	CameraRate	NumFrames	NumMarkers	Units	OrigDataRate	OrigDataStartFrame	OrigNumFrames
100.000000	100.000000	4	44	mm	100.000000	0	199
Frame#	Time	L_IAS			L_IPS			R_IPS			R_IAS			L_FTC			L_FLE			L_FME			L_FAX			L_TTC			L_FAL			L_TAM			L_FCC			L_FM1			L_FM2			L_FM5			R_FTC			R_FLE			R_FME			R_FAX			R_TTC			R_FAL			R_TAM			R_FCC			R_FM1			R_FM2			R_FM5			CV7			TV10			SXS			SJN			L_SAE			L_HLE			L_HME			L_RSP			L_UHE			L_HM2			L_HM5			R_SAE			R_HLE			R_HME			R_RSP			R_UHE			R_HM2			R_HM5			
		X1	Y1	Z1	X2	Y2	Z2	X3	Y3	Z3	X4	Y4	Z4	X5	Y5	Z5	X6	Y6	Z6	X7	Y7	Z7	X8	Y8	Z8	X9	Y9	Z9	X10	Y10	Z10	X11	Y11	Z11	X12	Y12	Z12	X13	Y13	Z13	X14	Y14	Z14	X15	Y15	Z15	X16	Y16	Z16	X17	Y17	Z17	X18	Y18	Z18	X19	Y19	Z19	X20	Y20	Z20	X21	Y21	Z21	X22	Y22	Z22	X23	Y23	Z23	X24	Y24	Z24	X25	Y25	Z25	X26	Y26	Z26	X27	Y27	Z27	X28	Y28	Z28	X29	Y29	Z29	X30	Y30	Z30	X31	Y31	Z31	X32	Y32	Z32	X33	Y33	Z33	X34	Y34	Z34	X35	Y35	Z35	X36	Y36	Z36	X37	Y37	Z37	X38	Y38	Z38	X39	Y39	Z39	X40	Y40	Z40	X41	Y41	Z41	X42	Y42	Z42	X43	Y43	Z43	X44	Y44	Z44	

1	0	-1239.28173828125	1068.871337890625	100.1907272338866	-1443.829223632813	1078.370727539063	219.376739501953	-1438.4951171875	1077.648803710938	287.0148315429686	-1227.883056640625	1078.958862304688	369.9660034179686	-1323.770263671875	948.8668212890627	49.02638244628891	-1420.578002929688	529.2827148437501	114.5919113159178	-1406.640625	539.7357788085939	243.2362823486327	-1457.619995117188	465.6672363281251	115.36270904541	-1405.401489257813	436.9195556640626	174.037399291992	-1599.866943359375	79.10660552978517	174.7135620117186	-1568.103271484375	95.08142089843751	267.8393249511718	-1651.82958984375	40.96597290039063	233.1808624267577	-1432.676025390625	21.85884857177735	234.5186462402343	-1436.61181640625	34.33969879150391	173.8734283447264	-1487.109375	21.12870597839356	132.3195800781249	-1281.96484375	951.7813720703127	437.7594909667968	-1134.007690429688	545.6303100585939	377.4479980468749	-1127.02783203125	550.3800048828126	248.135772705078	-1139.053955078125	474.3734741210939	382.0891113281249	-1066.189453125	488.9293518066407	321.3470458984374	-981.1091308593752	82.85607147216798	347.5328063964843	-946.0542602539065	125.5825653076172	265.1491394042968	-993.7271118164065	26.21856689453126	278.1838684082031	-796.7326660156252	130.6208038330078	293.7505493164062	-816.7889404296877	129.6710205078125	348.0272521972656	-847.642517089844	94.15707397460939	384.5476684570312	-1398.531494140625	1607.223876953125	237.1578521728514	-1438.986206054688	1243.89111328125	238.7411499023436	-1220.228637695313	1331.6826171875	232.222686767578	-1272.943115234375	1508.159301757813	231.6844177246093	-1313.875122070313	1541.405517578125	48.31240844726548	-1301.47021484375	1155.896484375	-54.62916564941423	-1336.78369140625	1137.67333984375	25.91323089599594	-1075.108032226563	1017.144226074219	63.98822402954089	-1099.03369140625	972.0723266601565	-3.281309604644911	-987.5545043945315	948.243347167969	91.12460327148426	-1050.334228515625	893.315124511719	18.51322364807116	-1307.09765625	1514.060180664063	436.8122253417968	-1367.69921875	1148.74853515625	520.348388671875	-1407.809814453125	1130.472778320313	430.6108703613281	-1258.382934570313	885.5054931640627	461.4623718261718	-1306.908569335938	873.4903564453127	528.5927734375	-1211.061401367188	777.393249511719	474.4167175292968	-1315.607666015625	775.3614501953127	517.6461791992188	
2	0.01	-1228.106811523438	1067.358642578125	100.4740295410155	-1432.431518554688	1076.720092773438	220.296417236328	-1426.95068359375	1075.920532226563	287.859405517578	-1216.124389648438	1077.396850585938	370.5686035156249	-1313.673217773438	947.7364501953127	49.37180328369126	-1413.185668945313	528.9262084960939	114.5130615234374	-1397.779663085938	538.7128295898439	243.1589965820311	-1450.981079101563	465.6162414550782	115.5577163696287	-1398.71142578125	435.9766235351564	173.724151611328	-1599.0986328125	80.99533843994142	174.4608306884764	-1566.915771484375	96.6807556152344	267.6445922851561	-1651.544799804688	43.68744659423829	233.1593170166014	-1432.5234375	22.14847373962403	234.3007354736327	-1436.438598632813	34.42399215698243	173.6215362548827	-1487.086547851563	21.13498115539551	132.2845001220702	-1270.2578125	950.1324462890627	438.2051696777343	-1121.89599609375	544.2885131835939	376.8767395019531	-1114.35205078125	549.4306030273439	247.7056121826171	-1127.316650390625	472.8323059082032	381.3285522460937	-1054.478271484375	487.3856506347657	320.8834228515624	-972.4527587890627	80.55468750000001	345.8096923828124	-937.1207275390627	123.1044387817383	263.4055480957031	-985.6040649414065	24.24677658081055	276.4674987792968	-787.657409667969	126.9431838989258	292.7173767089843	-808.019226074219	126.2598495483399	346.8298950195312	-839.330993652344	90.94923400878908	383.2200622558593	-1387.844604492188	1605.586303710938	237.9556884765624	-1427.704956054688	1242.130249023438	239.6043853759764	-1209.211669921875	1330.126586914063	232.7066040039062	-1262.0966796875	1506.649169921875	232.3571472167968	-1303.4091796875	1539.7041015625	48.96846008300767	-1290.667724609375	1154.034912109375	-53.50462341308611	-1325.795166015625	1135.897216796875	27.0737800598143	-1063.884765625	1016.049133300781	65.04324340820301	-1087.779296875	970.8484497070315	-2.060582160949841	-976.1572875976565	947.3359985351565	92.18698883056631	-1038.944580078125	892.1990966796877	19.73100852966296	-1295.544555664063	1512.471923828125	437.6342163085937	-1357.051513671875	1147.11474609375	521.1944580078125	-1397.709716796875	1128.939819335938	431.5351562499999	-1248.666625976563	883.584167480469	462.1167907714843	-1296.842529296875	871.7730102539065	529.380126953125	-1201.404541015625	775.443054199219	474.9194641113281	-1305.831665039063	773.6666259765627	518.4892578125	
3	0.02	-1216.730102539063	1065.949829101563	100.8354415893554	-1420.789306640625	1075.24853515625	221.3151245117186	-1415.164428710938	1074.401000976563	288.8133239746093	-1204.1318359375	1076.073120117188	371.2344360351561	-1303.34130859375	946.7651367187502	49.82931137084947	-1405.566772460938	528.7564697265626	114.425453186035	-1388.741821289063	537.8240356445314	243.0925750732421	-1444.140747070313	465.7429504394532	115.7111206054686	-1391.82763671875	435.1675415039064	173.3732299804686	-1598.268920898438	83.18667602539064	174.0743560791014	-1565.650390625	98.56793975830081	267.3168334960936	-1651.2333984375	46.81293869018555	233.0080413818358	-1432.283447265625	22.45018768310547	234.0551452636718	-1436.189697265625	34.51956176757813	173.3355407714842	-1487.025024414063	21.09958457946778	132.2496490478514	-1258.274169921875	948.7191162109377	438.7434692382812	-1109.697143554688	543.0234985351564	376.3694763183593	-1101.888671875	548.4500122070314	247.296417236328	-1115.572021484375	471.459930419922	380.6907958984374	-1042.90234375	485.728729248047	320.2688903808593	-965.0657958984377	77.97946929931642	344.1775512695312	-929.5676269531252	120.0906143188477	261.5806274414062	-979.2926025390627	22.11789703369141	274.9835815429687	-779.8687744140627	121.9612503051758	291.2083435058593	-800.391784667969	121.7672271728516	345.1695251464843	-832.2295532226565	86.88684082031251	381.5639953613281	-1377.063232421875	1604.10498046875	238.819854736328	-1416.249145507813	1240.513671875	240.5074768066405	-1198.046020507813	1328.75830078125	233.250015258789	-1251.147705078125	1505.302490234375	233.0868530273437	-1292.839233398438	1538.160888671875	49.68824768066392	-1279.945068359375	1152.337768554688	-52.32278060913103	-1314.888549804688	1134.269287109375	28.31620216369614	-1052.879150390625	1014.777465820313	66.05895996093739	-1076.807861328125	969.4919433593752	-0.9014926552773843	-965.0484619140627	946.1399536132815	93.14813232421865	-1027.919189453125	890.883972167969	20.84645080566394	-1283.84423828125	1510.992431640625	438.4682006835937	-1346.25732421875	1145.623291015625	522.0947265625	-1387.383178710938	1127.537719726563	432.5147705078124	-1238.812866210938	881.8017578125002	462.8636474609374	-1286.65478515625	870.1931152343752	530.2495727539062	-1191.625244140625	773.6245727539065	475.5224304199218	-1295.937377929688	772.1107177734377	519.4205322265625	
4	0.03	-1205.151489257813	1064.674682617188	101.2728347778319	-1408.89453125	1073.987426757813	222.4502716064452	-1403.126342773438	1073.1298828125	289.8981018066405	-1191.890014648438	1075.008544921875	371.942657470703	-1292.744262695313	945.9747314453127	50.40190124511705	-1397.6435546875	528.7745361328126	114.3080749511717	-1379.471313476563	537.0752563476564	243.0167999267577	-1437.02197265625	466.0580139160157	115.7935714721678	-1384.680053710938	434.4900512695314	172.9607849121092	-1597.349609375	85.71797943115236	173.5385589599608	-1564.27197265625	100.7732849121094	266.8286132812499	-1650.859008789063	50.39999008178712	232.710494995117	-1431.964111328125	22.73964309692383	233.7959747314452	-1435.871826171875	34.60915756225587	173.0249786376952	-1486.934326171875	21.01615715026856	132.2255096435545	-1245.994995117188	947.583435058594	439.3759155273437	-1097.516967773438	541.8418579101564	375.9504394531249	-1089.791259765625	547.4362792968751	246.9205169677734	-1103.895385742188	470.2645568847657	380.2003173828124	-1031.531982421875	484.0104370117189	319.5121765136718	-958.708435058594	75.27160644531251	342.6753845214843	-923.1547851562502	116.7042694091797	259.7278442382812	-974.5118408203127	19.99803352355957	273.7494201660156	-773.1497192382815	115.8558883666992	289.2779235839843	-793.6811523437502	116.3433609008789	343.1081848144531	-826.1058349609377	82.12368011474611	379.6335449218749	-1366.188232421875	1602.810546875	239.7483825683593	-1404.608642578125	1239.06689453125	241.4591674804686	-1186.729736328125	1327.6162109375	233.8618774414062	-1240.097290039063	1504.14990234375	233.8754730224609	-1282.16015625	1536.803955078125	50.4742050170897	-1269.298828125	1150.83154296875	-51.09046554565447	-1304.0751953125	1132.806396484375	29.63112831115707	-1042.098388671875	1013.345031738281	67.03450775146473	-1066.130004882813	968.0186157226565	0.1941697746513969	-954.2369384765627	944.671081542969	94.01158142089834	-1017.272338867188	889.3864746093752	21.86683845520007	-1272.047119140625	1509.655151367188	439.3165588378906	-1335.310791015625	1144.298583984375	523.0388793945312	-1376.810546875	1126.290771484375	433.5356445312499	-1228.805053710938	880.1842041015627	463.7043151855468	-1276.35107421875	868.7734375000002	531.1981201171875	-1181.724243164063	771.958435058594	476.2386474609374	-1285.931030273438	770.716735839844	520.437255859375	
